<svg xmlns="http://www.w3.org/2000/svg" width="71" height="68" viewBox="0 0 71 68">
  <metadata><?xpacket begin="﻿" id="W5M0MpCehiHzreSzNTczkc9d"?>
<x:xmpmeta xmlns:x="adobe:ns:meta/" x:xmptk="Adobe XMP Core 5.6-c138 79.159824, 2016/09/14-01:09:01        ">
   <rdf:RDF xmlns:rdf="http://www.w3.org/1999/02/22-rdf-syntax-ns#">
      <rdf:Description rdf:about=""/>
   </rdf:RDF>
</x:xmpmeta>
                                                                                                    
                                                                                                    
                                                                                                    
                                                                                                    
                                                                                                    
                                                                                                    
                                                                                                    
                                                                                                    
                                                                                                    
                                                                                                    
                                                                                                    
                                                                                                    
                                                                                                    
                                                                                                    
                                                                                                    
                                                                                                    
                                                                                                    
                                                                                                    
                                                                                                    
                                                                                                    
                           
<?xpacket end="w"?></metadata>
<defs>
    <style>
      .cls-1 {
        fill-rule: evenodd;
      }
    </style>
  </defs>
  <path id="иконка_писать_мне" data-name="иконка писать мне" class="cls-1" d="M44.518,43.5a1.331,1.331,0,0,0-.249.448V58.183a4.27,4.27,0,0,1-4.358,4.177H9.884a4.248,4.248,0,0,1-4.338-4.177V20.053a4.368,4.368,0,0,1,4.338-4.317H39.9a4.312,4.312,0,0,1,2.336.72l4.818-5.3a5.637,5.637,0,0,0-2.891-.757H5.39A5.337,5.337,0,0,0,.014,15.745V62.413A5.579,5.579,0,0,0,5.619,68H44.165A5.6,5.6,0,0,0,49.8,62.413V37.758l-4.65,5.168A3.428,3.428,0,0,1,44.518,43.5ZM12.7,23.049a2.668,2.668,0,1,0,0,5.333H31.453l4.91-5.333H12.7Zm15.664,9.3c0.027-.094.058-0.154,0.094-0.308H12.7a2.74,2.74,0,1,0,0,5.48h14.17Zm-6.105,8.837H12.7a2.74,2.74,0,1,0,0,5.48h9.56a2.778,2.778,0,0,0,2.624-1.887,4.687,4.687,0,0,1,.144-0.884,2.728,2.728,0,0,0-2.365-2.684A3.035,3.035,0,0,0,22.255,41.184Zm29.6-30.549L34.1,30.262l-1.2,1.33,9.61,8.548,1.2-1.328L61.464,19.186,62.9,17.607,53.285,9.058Zm-0.979,8.879L39.43,32.169a0.829,0.829,0,0,1-.559.267,0.821,0.821,0,0,1-.586-0.205l-0.568-.505a0.8,0.8,0,0,1-.058-1.134L49.107,17.935a0.808,0.808,0,0,1,.562-0.265,0.83,0.83,0,0,1,.584.2l0.564,0.508A0.8,0.8,0,0,1,50.879,19.514ZM54.2,13.5L54.77,14a0.8,0.8,0,0,1,.065,1.127,0.009,0.009,0,0,0,0,0l-0.991,1.1a0.815,0.815,0,0,1-.133.116A0.806,0.806,0,0,1,52.7,16.3l-0.568-.5a0.8,0.8,0,0,1-.267-0.555,0.78,0.78,0,0,1,.207-0.579l1-1.1A0.814,0.814,0,0,1,54.2,13.5Zm0.883-6.435-0.874.964,9.607,8.55,0.876-.967,1.489-1.644L56.576,5.42ZM70.049,5.544L64.6,0.7a2.808,2.808,0,0,0-3.942.211L57.443,4.462l9.608,8.547,3.212-3.551A2.752,2.752,0,0,0,70.049,5.544Zm-3.192,3.9L61.035,4.268,62.717,2.41l5.82,5.179ZM30.31,45.9l11.045-4.488-9.6-8.545L28.445,44.243a1.373,1.373,0,0,0,.409,1.41A1.391,1.391,0,0,0,30.31,45.9Zm2.318-10L38.21,40.87l-4.34,1.764L31.33,40.375Z"/>
</svg>
