<svg xmlns="http://www.w3.org/2000/svg" width="61" height="61" viewBox="0 0 61 61">
  <metadata><?xpacket begin="﻿" id="W5M0MpCehiHzreSzNTczkc9d"?>
<x:xmpmeta xmlns:x="adobe:ns:meta/" x:xmptk="Adobe XMP Core 5.6-c138 79.159824, 2016/09/14-01:09:01        ">
   <rdf:RDF xmlns:rdf="http://www.w3.org/1999/02/22-rdf-syntax-ns#">
      <rdf:Description rdf:about=""/>
   </rdf:RDF>
</x:xmpmeta>
                                                                                                    
                                                                                                    
                                                                                                    
                                                                                                    
                                                                                                    
                                                                                                    
                                                                                                    
                                                                                                    
                                                                                                    
                                                                                                    
                                                                                                    
                                                                                                    
                                                                                                    
                                                                                                    
                                                                                                    
                                                                                                    
                                                                                                    
                                                                                                    
                                                                                                    
                                                                                                    
                           
<?xpacket end="w"?></metadata>
<defs>
    <style>
      .cls-1 {
        fill: #09c;
        fill-rule: evenodd;
      }
    </style>
  </defs>
  <path id="insta" class="cls-1" d="M30.5,24.434A6.066,6.066,0,1,0,36.565,30.5,6.073,6.073,0,0,0,30.5,24.434Zm0,0A6.066,6.066,0,1,0,36.565,30.5,6.073,6.073,0,0,0,30.5,24.434ZM40.6,14.544H20.395a5.858,5.858,0,0,0-5.85,5.851V40.6a5.858,5.858,0,0,0,5.851,5.851H40.6A5.858,5.858,0,0,0,46.456,40.6V20.395A5.858,5.858,0,0,0,40.6,14.544ZM30.5,41A10.505,10.505,0,1,1,41.005,30.5,10.517,10.517,0,0,1,30.5,41ZM41.342,22.167a2.486,2.486,0,1,1,2.486-2.486A2.489,2.489,0,0,1,41.342,22.167ZM30.5,24.434A6.066,6.066,0,1,0,36.565,30.5,6.073,6.073,0,0,0,30.5,24.434ZM40.6,14.544H20.395a5.858,5.858,0,0,0-5.85,5.851V40.6a5.858,5.858,0,0,0,5.851,5.851H40.6A5.858,5.858,0,0,0,46.456,40.6V20.395A5.858,5.858,0,0,0,40.6,14.544ZM30.5,41A10.505,10.505,0,1,1,41.005,30.5,10.517,10.517,0,0,1,30.5,41ZM41.342,22.167a2.486,2.486,0,1,1,2.486-2.486A2.489,2.489,0,0,1,41.342,22.167ZM30.5,24.434A6.066,6.066,0,1,0,36.565,30.5,6.073,6.073,0,0,0,30.5,24.434ZM0,0V61H61V0H0ZM50.894,40.6A10.3,10.3,0,0,1,40.6,50.894H20.395A10.3,10.3,0,0,1,10.106,40.6V20.395A10.3,10.3,0,0,1,20.395,10.106H40.6A10.3,10.3,0,0,1,50.894,20.395V40.6h0ZM40.6,14.544H20.395a5.858,5.858,0,0,0-5.85,5.851V40.6a5.858,5.858,0,0,0,5.851,5.851H40.6A5.858,5.858,0,0,0,46.456,40.6V20.395A5.858,5.858,0,0,0,40.6,14.544ZM30.5,41A10.505,10.505,0,1,1,41.005,30.5,10.517,10.517,0,0,1,30.5,41ZM41.342,22.167a2.486,2.486,0,1,1,2.486-2.486A2.489,2.489,0,0,1,41.342,22.167ZM30.5,24.434A6.066,6.066,0,1,0,36.565,30.5,6.073,6.073,0,0,0,30.5,24.434Zm0,0A6.066,6.066,0,1,0,36.565,30.5,6.073,6.073,0,0,0,30.5,24.434Zm0,0A6.066,6.066,0,1,0,36.565,30.5,6.073,6.073,0,0,0,30.5,24.434ZM40.6,14.544H20.395a5.858,5.858,0,0,0-5.85,5.851V40.6a5.858,5.858,0,0,0,5.851,5.851H40.6A5.858,5.858,0,0,0,46.456,40.6V20.395A5.858,5.858,0,0,0,40.6,14.544ZM30.5,41A10.505,10.505,0,1,1,41.005,30.5,10.517,10.517,0,0,1,30.5,41ZM41.342,22.167a2.486,2.486,0,1,1,2.486-2.486A2.489,2.489,0,0,1,41.342,22.167ZM30.5,24.434A6.066,6.066,0,1,0,36.565,30.5,6.073,6.073,0,0,0,30.5,24.434Zm0,0A6.066,6.066,0,1,0,36.565,30.5,6.073,6.073,0,0,0,30.5,24.434Zm0,0A6.066,6.066,0,1,0,36.565,30.5,6.073,6.073,0,0,0,30.5,24.434ZM40.6,14.544H20.395a5.858,5.858,0,0,0-5.85,5.851V40.6a5.858,5.858,0,0,0,5.851,5.851H40.6A5.858,5.858,0,0,0,46.456,40.6V20.395A5.858,5.858,0,0,0,40.6,14.544ZM30.5,41A10.505,10.505,0,1,1,41.005,30.5,10.517,10.517,0,0,1,30.5,41ZM41.342,22.167a2.486,2.486,0,1,1,2.486-2.486A2.489,2.489,0,0,1,41.342,22.167ZM30.5,24.434A6.066,6.066,0,1,0,36.565,30.5,6.073,6.073,0,0,0,30.5,24.434Z"/>
</svg>
