<svg id="лого2" xmlns="http://www.w3.org/2000/svg" width="370" height="74" viewBox="0 0 370 74">
  <defs>
    <style>
      .cls-1 {
        fill: #fff;
      }

      .cls-1, .cls-2 {
        fill-rule: evenodd;
      }

      .cls-2 {
        fill: #fff200;
      }
    </style>
  </defs>
  <path id="Наталья_Мясникова" data-name="Наталья Мясникова" class="cls-1" d="M19.692,25.547h3.055V-0.33H19.692V10.945H7.324V-0.33H4.269V25.547H7.324V13.68H19.692V25.547Zm24.184,0h3.239L37.324-.736h-1.4L26.171,25.547h3.055l2.564-7.172h9.45ZM35.6,7.914l0.916-3.992h0.037L37.467,7.84l2.857,7.874H32.779ZM64.71-.33h-19.1V2.406h8.024V25.547h3.055V2.406H64.71V-0.33Zm16.2,25.876h3.239L74.355-.736h-1.4L63.2,25.547h3.055l2.564-7.172h9.45ZM72.629,7.914l0.916-3.992h0.037L74.5,7.84l2.857,7.874H69.809Zm28.376,17.633h3.055V-0.33H90.44Q90.33,4.4,90.109,7.932t-0.57,6.081a33.2,33.2,0,0,1-.81,4.214,14.222,14.222,0,0,1-.976,2.662,4.123,4.123,0,0,1-1.2,1.516,2.194,2.194,0,0,1-1.233.407,2.663,2.663,0,0,1-.773-0.111l-0.4,2.662a4.656,4.656,0,0,0,.92.277,6.136,6.136,0,0,0,1.141.092,3.953,3.953,0,0,0,2.393-.813,6.454,6.454,0,0,0,1.914-2.588A27.875,27.875,0,0,0,92.336,14.7q0.607-4.9.975-12.291h7.693V25.547Zm9.312-.259a12.41,12.41,0,0,0,1.528.3q0.828,0.111,1.656.166t1.565,0.074q0.735,0.018,1.251.019a14.443,14.443,0,0,0,3.957-.518,9.1,9.1,0,0,0,3.184-1.59,7.438,7.438,0,0,0,2.135-2.7,8.866,8.866,0,0,0,.773-3.844,7.907,7.907,0,0,0-.81-3.789,6.641,6.641,0,0,0-2.116-2.384,8.274,8.274,0,0,0-2.982-1.238,16.736,16.736,0,0,0-3.441-.351q-0.442,0-.994.037l-1.068.074c-0.344.025-.662,0.055-0.957,0.092s-0.5.068-.626,0.092V-0.33h-3.055V25.288Zm4.528-2.163a10.289,10.289,0,0,1-1.473-.166V12.424q0.184-.036.589-0.111a8.78,8.78,0,0,1,.884-0.111l0.957-.074q0.478-.036.81-0.037a12.143,12.143,0,0,1,2.429.24,5.718,5.718,0,0,1,2.08.85,4.5,4.5,0,0,1,1.454,1.645,5.456,5.456,0,0,1,.552,2.588,6.055,6.055,0,0,1-.5,2.532,4.938,4.938,0,0,1-1.38,1.811,5.9,5.9,0,0,1-2.043,1.072,8.517,8.517,0,0,1-2.485.351Q115.8,23.181,114.845,23.125Zm30.588-23.2a17.413,17.413,0,0,0-2.779-.444q-1.417-.111-2.669-0.111a17.024,17.024,0,0,0-3.7.388,8.555,8.555,0,0,0-3.055,1.294,6.325,6.325,0,0,0-2.061,2.4,8.288,8.288,0,0,0-.755,3.752,8.351,8.351,0,0,0,.46,2.883,6.882,6.882,0,0,0,1.288,2.2,7.08,7.08,0,0,0,1.951,1.553,9.379,9.379,0,0,0,2.448.906l-2.245,1.59-5.742,9.2h3.607l6.405-10.461,3.791-.813V25.547h3.055V-0.071Zm-4.122,2.163a9.672,9.672,0,0,1,1.067.166V12.5h-2.5a9.414,9.414,0,0,1-2.411-.3,5.5,5.5,0,0,1-1.969-.943,4.625,4.625,0,0,1-1.344-1.645,5.345,5.345,0,0,1-.5-2.4A5.446,5.446,0,0,1,134.17,4.7a4.234,4.234,0,0,1,1.38-1.59,5.543,5.543,0,0,1,1.969-.832,10.892,10.892,0,0,1,2.319-.24C140.451,2.036,140.943,2.054,141.311,2.091Zm40.011,23.455h3.055V-0.33h-2.392l-7.694,13.16-1.141,2.957h-0.073L171.862,12.9,163.8-.33h-2.283V25.547h2.872V8.135l-0.516-3.844h0.184L165.383,7.8l7.1,11.718h0.92l6.7-11.681,1.4-3.549h0.184l-0.368,3.881V25.547Zm24-25.618a17.413,17.413,0,0,0-2.779-.444q-1.417-.111-2.669-0.111a17.024,17.024,0,0,0-3.7.388,8.555,8.555,0,0,0-3.055,1.294,6.325,6.325,0,0,0-2.061,2.4,8.288,8.288,0,0,0-.755,3.752,8.351,8.351,0,0,0,.46,2.883,6.882,6.882,0,0,0,1.288,2.2A7.066,7.066,0,0,0,194,13.847a9.379,9.379,0,0,0,2.448.906l-2.245,1.59-5.743,9.2h3.608l6.405-10.461,3.791-.813V25.547h3.055V-0.071ZM201.2,2.091a9.672,9.672,0,0,1,1.067.166V12.5h-2.5a9.414,9.414,0,0,1-2.411-.3,5.5,5.5,0,0,1-1.969-.943,4.625,4.625,0,0,1-1.344-1.645,5.345,5.345,0,0,1-.5-2.4,5.446,5.446,0,0,1,.516-2.514,4.234,4.234,0,0,1,1.38-1.59,5.543,5.543,0,0,1,1.969-.832,10.892,10.892,0,0,1,2.319-.24Q200.646,2.036,201.2,2.091Zm26.134,19.98a7.96,7.96,0,0,1-2.08.85,11.162,11.162,0,0,1-2.89.333,8.6,8.6,0,0,1-3.4-.665,7.436,7.436,0,0,1-2.724-2,9.587,9.587,0,0,1-1.822-3.327,14.794,14.794,0,0,1-.663-4.658,15.479,15.479,0,0,1,.7-4.99,9.192,9.192,0,0,1,1.859-3.29,6.844,6.844,0,0,1,2.632-1.811,8.4,8.4,0,0,1,2.982-.555,11.5,11.5,0,0,1,5.043.887L227.7,0.114a11.552,11.552,0,0,0-2.393-.647,22.056,22.056,0,0,0-3.607-.24,11.531,11.531,0,0,0-4.049.739,9.914,9.914,0,0,0-3.589,2.347,11.757,11.757,0,0,0-2.577,4.14,17.179,17.179,0,0,0-.975,6.155,18.273,18.273,0,0,0,.883,6.007,11.66,11.66,0,0,0,2.393,4.159,9.5,9.5,0,0,0,3.534,2.421,11.777,11.777,0,0,0,4.343.795,18.693,18.693,0,0,0,3.607-.333,6.6,6.6,0,0,0,2.8-1.183Zm20.687,3.475h3.055V-0.33H248.02V10.945H235.652V-0.33H232.6V25.547h3.056V13.68H248.02V25.547Zm25.067,0h3.055V-0.33h-1.8L261.9,17.3l-1.62,3.031H260.13l0.258-2.92V-0.33h-3.056V25.547h1.8L271.578,8.1l1.582-3.031h0.148l-0.221,2.957V25.547Zm23.484,0h3.865L291.013,13.5l-1.877-1.479,1.546-1.22L299.3-.33h-3.533L287.111,11.2l-1.656.518V-0.33H282.4V25.547h3.055V13.57h1.73Zm7.1-7.449a11.878,11.878,0,0,0,1.933,4.214,8.877,8.877,0,0,0,3.276,2.717,10.511,10.511,0,0,0,4.656.961,9.4,9.4,0,0,0,7.822-3.456q2.742-3.456,2.743-9.925a22.282,22.282,0,0,0-.626-5.49A11.9,11.9,0,0,0,321.546,2.9,8.85,8.85,0,0,0,318.252.188a10.726,10.726,0,0,0-4.712-.961,9.308,9.308,0,0,0-7.766,3.456q-2.726,3.457-2.724,9.926A22.278,22.278,0,0,0,303.675,18.1Zm4.546-13.53a6.258,6.258,0,0,1,5.319-2.606,6.062,6.062,0,0,1,3.295.869,7.141,7.141,0,0,1,2.282,2.329,10.8,10.8,0,0,1,1.325,3.4,18.959,18.959,0,0,1,.423,4.048q0,5.434-1.95,8.04a6.344,6.344,0,0,1-5.375,2.606,5.985,5.985,0,0,1-3.257-.869,6.945,6.945,0,0,1-2.264-2.329,11.086,11.086,0,0,1-1.307-3.382,18.879,18.879,0,0,1-.423-4.066Q306.289,7.174,308.221,4.568Zm35.816-2.126a5.72,5.72,0,0,0-2.006-1.9,8.105,8.105,0,0,0-2.706-.924,18.393,18.393,0,0,0-2.926-.24q-2.136,0-3.939.148t-3.166.37v25.47a10.461,10.461,0,0,0,1.62.277q0.919,0.092,1.841.148t1.766,0.055h1.473a14.176,14.176,0,0,0,3.534-.444,9.559,9.559,0,0,0,3.073-1.368,7.091,7.091,0,0,0,2.172-2.384,6.893,6.893,0,0,0,.828-3.456,6.61,6.61,0,0,0-.478-2.625,6.037,6.037,0,0,0-1.252-1.885,5.762,5.762,0,0,0-1.785-1.22,8.949,8.949,0,0,0-2.117-.628V11.684a7.015,7.015,0,0,0,2.172-.961,5.911,5.911,0,0,0,1.509-1.46,6.287,6.287,0,0,0,.884-1.793,6.423,6.423,0,0,0,.294-1.885A5.684,5.684,0,0,0,344.037,2.443Zm-8.779,20.72q-0.589-.018-1.141-0.055c-0.369-.024-0.712-0.049-1.031-0.074a3.843,3.843,0,0,1-.736-0.111V13.643h3.2a16.151,16.151,0,0,1,2.43.185,6.854,6.854,0,0,1,2.19.7,4.257,4.257,0,0,1,1.583,1.442,4.387,4.387,0,0,1,.607,2.44,4.248,4.248,0,0,1-.5,2.107,4.59,4.59,0,0,1-1.344,1.5,5.646,5.646,0,0,1-1.951.887,9.337,9.337,0,0,1-2.282.277C335.994,23.181,335.65,23.175,335.258,23.162ZM332.35,11.056v-8.8a10.558,10.558,0,0,1,1.527-.166q1.012-.055,2.227-0.055a10.112,10.112,0,0,1,2.025.2,5.368,5.368,0,0,1,1.767.684A3.612,3.612,0,0,1,341.129,4.2a3.986,3.986,0,0,1,.46,2.015,3.879,3.879,0,0,1-.35,1.645,4.268,4.268,0,0,1-.957,1.331,6.7,6.7,0,0,1-1.38,1,10.039,10.039,0,0,1-1.657.721q-0.588.075-1.472,0.111t-1.509.037H332.35Zm33.312,14.491h3.24L359.11-.736h-1.4l-9.754,26.283h3.055l2.564-7.172h9.449ZM357.385,7.914L358.3,3.921h0.037l0.916,3.918,2.857,7.874h-7.545Z"/>
  <path id="Фигура_2" data-name="Фигура 2" class="cls-2" d="M1,42.006V39.995H369v2.011H1Z"/>
  <path id="Дизайнер_Фотограф_Художник" data-name="Дизайнер |  Фотограф |  Художник" class="cls-1" d="M14.091,69.227h-1.97V55.616h-8.1a52.648,52.648,0,0,1-.281,5.86Q3.46,63.944,3.1,65.585a16.266,16.266,0,0,1-.715,2.522,6.607,6.607,0,0,1-.53,1.12H0.321v4.414H1.577l0.325-2.8H12.532l0.325,2.8h1.234V69.227Zm-10.328,0a12.66,12.66,0,0,0,.671-1.783,21.874,21.874,0,0,0,.585-2.533q0.26-1.468.444-3.381t0.249-4.305h4.612v12H3.763ZM25.8,70.837h1.8V55.616H26.541L19.223,65.988,18.27,67.771H18.183l0.152-1.718V55.616h-1.8V70.837H17.6l7.318-10.263,0.931-1.783h0.087L25.8,60.53V70.837Zm7.838-7.2q0.238,0,.465.011T34.6,63.683a5.043,5.043,0,0,1,2.49.75,2.253,2.253,0,0,1,.953,2.011,2.739,2.739,0,0,1-.314,1.348,2.963,2.963,0,0,1-.823.946,3.521,3.521,0,0,1-1.158.565,4.8,4.8,0,0,1-1.321.185,12.071,12.071,0,0,1-2.176-.167,6.1,6.1,0,0,1-1.4-.4l-0.455,1.609a8.038,8.038,0,0,0,1.526.4,13.879,13.879,0,0,0,2.349.163,8.15,8.15,0,0,0,2.089-.272,5.277,5.277,0,0,0,1.819-.859,4.328,4.328,0,0,0,1.765-3.631,3.482,3.482,0,0,0-.888-2.5,4,4,0,0,0-2.425-1.152V62.6a3.957,3.957,0,0,0,2.144-1.424,3.493,3.493,0,0,0,.715-2.076,3.683,3.683,0,0,0-.4-1.794,3.141,3.141,0,0,0-1.061-1.153,4.578,4.578,0,0,0-1.494-.609,7.844,7.844,0,0,0-1.7-.185,11.733,11.733,0,0,0-2.533.25,6.524,6.524,0,0,0-1.559.489l0.476,1.435a5.649,5.649,0,0,1,1.321-.4,10.42,10.42,0,0,1,1.992-.163,5.582,5.582,0,0,1,1.18.12,2.684,2.684,0,0,1,.974.413,2.021,2.021,0,0,1,.66.772,2.673,2.673,0,0,1,.238,1.2,2.119,2.119,0,0,1-.217.957,2.5,2.5,0,0,1-.585.761,3.064,3.064,0,0,1-.866.533,4.566,4.566,0,0,1-1.061.294,2.221,2.221,0,0,1-.444.054q-0.271.011-.563,0.033t-0.574.022H32.452v1.522h1.191Zm18.1,7.2h1.905l-5.759-15.46H47.067l-5.738,15.46h1.8l1.508-4.218h5.558ZM46.874,60.465l0.539-2.348h0.022l0.539,2.3,1.68,4.631H45.216ZM64.929,70.837h1.8V55.616H65.665L58.347,65.988l-0.953,1.783H57.308l0.152-1.718V55.616h-1.8V70.837h1.061l7.318-10.263,0.931-1.783h0.087l-0.13,1.74V70.837ZM57.7,52.354a2.466,2.466,0,0,0,1.158,1.9,4.8,4.8,0,0,0,2.523.6,3.851,3.851,0,0,0,2.457-.685,3.079,3.079,0,0,0,1.094-1.859l-1.559-.37a1.873,1.873,0,0,1-.617,1.218,2.045,2.045,0,0,1-1.375.435,2.088,2.088,0,0,1-1.386-.435,1.789,1.789,0,0,1-.606-1.239ZM79.479,70.837h1.8V55.616h-1.8v6.632H72.2V55.616h-1.8V70.837h1.8v-6.98h7.275v6.98Zm5.478,0h8.358V69.227h-6.56V63.813h5.911V62.2H86.754V57.225h6.452V55.616H84.957V70.837Zm11.605,0h1.8V65.052a3.612,3.612,0,0,0,.368.044q0.26,0.022.531,0.033t0.52,0.011h0.358a9.135,9.135,0,0,0,2.187-.261,5.325,5.325,0,0,0,1.883-.859,4.389,4.389,0,0,0,1.321-1.555,5.04,5.04,0,0,0,.5-2.348,4.59,4.59,0,0,0-.53-2.327,4.034,4.034,0,0,0-1.375-1.435,5.482,5.482,0,0,0-1.873-.718,10.828,10.828,0,0,0-2.025-.2q-0.931,0-1.883.065a10.882,10.882,0,0,0-1.775.261V70.837Zm5.088-13.677a3.733,3.733,0,0,1,1.245.511,2.694,2.694,0,0,1,.888.957,3.007,3.007,0,0,1,.336,1.489,3.639,3.639,0,0,1-.358,1.718,2.7,2.7,0,0,1-.941,1.044,3.777,3.777,0,0,1-1.31.511,7.609,7.609,0,0,1-1.462.141H99.7q-0.239,0-.5-0.011l-0.5-.022a1.132,1.132,0,0,1-.346-0.054V57.138a3.673,3.673,0,0,1,.823-0.109q0.52-.021,1.083-0.022A6.459,6.459,0,0,1,101.65,57.159Zm11.93,16.5h1.473V55.616H113.58V73.663Zm22.431-2.392h1.8V69.1a2.711,2.711,0,0,0,.7.12c0.311,0.022.545,0.033,0.7,0.033a5.3,5.3,0,0,0,2.035-.391,4.6,4.6,0,0,0,1.667-1.174,5.728,5.728,0,0,0,1.137-1.957,8,8,0,0,0,.422-2.718,8.6,8.6,0,0,0-.368-2.642,5.266,5.266,0,0,0-1.028-1.892,4.315,4.315,0,0,0-1.548-1.131,4.843,4.843,0,0,0-1.927-.381c-0.231,0-.524.008-0.877,0.022a4.078,4.078,0,0,0-.92.13V55.181h-1.8v1.87a5.471,5.471,0,0,0-.66-0.065q-0.422-.021-0.7-0.022a5.372,5.372,0,0,0-2.165.424,4.7,4.7,0,0,0-1.678,1.229,5.558,5.558,0,0,0-1.082,1.968,8.506,8.506,0,0,0-.379,2.642,8.613,8.613,0,0,0,.379,2.707,5.256,5.256,0,0,0,1.039,1.881A4,4,0,0,0,132.32,68.9a5.254,5.254,0,0,0,1.916.348c0.289,0,.595-0.007.92-0.022a6.6,6.6,0,0,0,.855-0.087v2.131Zm4.7-12.47a2.841,2.841,0,0,1,1.028.924,4.659,4.659,0,0,1,.65,1.446,7.729,7.729,0,0,1-.054,3.925,4.329,4.329,0,0,1-.769,1.479,3.072,3.072,0,0,1-1.126.87,3.358,3.358,0,0,1-1.375.283q-0.346,0-.7-0.011a3.556,3.556,0,0,1-.574-0.054V58.638a2.728,2.728,0,0,1,.779-0.13q0.477-.021.78-0.022A2.914,2.914,0,0,1,140.71,58.8Zm-7.524,8.622a2.972,2.972,0,0,1-1.061-.892,4.278,4.278,0,0,1-.682-1.424,6.863,6.863,0,0,1-.238-1.881,7.145,7.145,0,0,1,.27-2.066,4.452,4.452,0,0,1,.747-1.489,3.056,3.056,0,0,1,1.115-.892,3.253,3.253,0,0,1,1.375-.294c0.2,0,.43.008,0.682,0.022a6.107,6.107,0,0,1,.639.065V67.6a3,3,0,0,1-.357.076,3.965,3.965,0,0,1-.422.043c-0.145.007-.278,0.011-0.4,0.011h-0.292A3.059,3.059,0,0,1,133.186,67.423Zm13.738-.968a6.97,6.97,0,0,0,1.137,2.479,5.212,5.212,0,0,0,1.927,1.6,6.183,6.183,0,0,0,2.739.565,5.531,5.531,0,0,0,4.6-2.033,9.211,9.211,0,0,0,1.613-5.838A13.121,13.121,0,0,0,158.573,60a7.011,7.011,0,0,0-1.137-2.479,5.207,5.207,0,0,0-1.938-1.6,6.306,6.306,0,0,0-2.771-.565,5.477,5.477,0,0,0-4.569,2.033,9.256,9.256,0,0,0-1.6,5.838A13.069,13.069,0,0,0,146.924,66.455ZM149.6,58.5a3.681,3.681,0,0,1,3.129-1.533,3.569,3.569,0,0,1,1.938.511,4.2,4.2,0,0,1,1.342,1.37,6.37,6.37,0,0,1,.779,2,11.143,11.143,0,0,1,.249,2.381,7.9,7.9,0,0,1-1.147,4.729,3.731,3.731,0,0,1-3.161,1.533,3.526,3.526,0,0,1-1.917-.511,4.085,4.085,0,0,1-1.331-1.37,6.51,6.51,0,0,1-.769-1.99,11.1,11.1,0,0,1-.249-2.392A7.958,7.958,0,0,1,149.6,58.5Zm21.143-2.881H159.5v1.609h4.72V70.837h1.8V57.225h4.72V55.616Zm0.931,10.839a6.97,6.97,0,0,0,1.137,2.479,5.22,5.22,0,0,0,1.927,1.6,6.183,6.183,0,0,0,2.739.565,5.531,5.531,0,0,0,4.6-2.033,9.211,9.211,0,0,0,1.613-5.838A13.121,13.121,0,0,0,183.321,60a7.011,7.011,0,0,0-1.137-2.479,5.2,5.2,0,0,0-1.938-1.6,6.306,6.306,0,0,0-2.771-.565,5.477,5.477,0,0,0-4.569,2.033,9.256,9.256,0,0,0-1.6,5.838A13.117,13.117,0,0,0,171.672,66.455Zm2.674-7.958a3.682,3.682,0,0,1,3.129-1.533,3.569,3.569,0,0,1,1.938.511,4.2,4.2,0,0,1,1.342,1.37,6.371,6.371,0,0,1,.78,2,11.208,11.208,0,0,1,.249,2.381,7.9,7.9,0,0,1-1.148,4.729,3.731,3.731,0,0,1-3.161,1.533,3.52,3.52,0,0,1-1.916-.511,4.078,4.078,0,0,1-1.332-1.37,6.536,6.536,0,0,1-.769-1.99,11.1,11.1,0,0,1-.249-2.392A7.958,7.958,0,0,1,174.346,58.5Zm20.515-2.881h-8.119V70.837h1.8V57.225h6.322V55.616Zm1.45,15.221h1.8V65.052a3.576,3.576,0,0,0,.368.044c0.173,0.015.349,0.025,0.53,0.033s0.354,0.011.52,0.011h0.357a9.135,9.135,0,0,0,2.187-.261,5.338,5.338,0,0,0,1.884-.859,4.4,4.4,0,0,0,1.32-1.555,5.04,5.04,0,0,0,.5-2.348,4.59,4.59,0,0,0-.53-2.327,4.034,4.034,0,0,0-1.375-1.435A5.482,5.482,0,0,0,202,55.637a10.825,10.825,0,0,0-2.024-.2q-0.932,0-1.884.065a10.9,10.9,0,0,0-1.776.261V70.837ZM201.4,57.159a3.751,3.751,0,0,1,1.245.511,2.692,2.692,0,0,1,.887.957,3.007,3.007,0,0,1,.336,1.489,3.652,3.652,0,0,1-.357,1.718,2.7,2.7,0,0,1-.942,1.044,3.777,3.777,0,0,1-1.31.511,7.609,7.609,0,0,1-1.462.141h-0.346q-0.238,0-.5-0.011l-0.5-.022a1.129,1.129,0,0,1-.346-0.054V57.138a3.66,3.66,0,0,1,.822-0.109c0.347-.014.707-0.022,1.083-0.022A6.468,6.468,0,0,1,201.4,57.159Zm14.4,13.677H217.7l-5.759-15.46h-0.823l-5.737,15.46h1.8l1.508-4.218h5.558Zm-4.869-10.372,0.539-2.348h0.021l0.539,2.3,1.68,4.631H209.27Zm13.963,10.807h1.8V69.1a2.72,2.72,0,0,0,.7.12q0.465,0.033.7,0.033a5.308,5.308,0,0,0,2.036-.391,4.611,4.611,0,0,0,1.667-1.174,5.743,5.743,0,0,0,1.136-1.957,8,8,0,0,0,.423-2.718,8.628,8.628,0,0,0-.368-2.642,5.283,5.283,0,0,0-1.029-1.892,4.3,4.3,0,0,0-1.548-1.131,4.843,4.843,0,0,0-1.927-.381q-0.346,0-.877.022a4.087,4.087,0,0,0-.92.13V55.181h-1.8v1.87a5.491,5.491,0,0,0-.661-0.065c-0.281-.014-0.516-0.022-0.7-0.022a5.368,5.368,0,0,0-2.165.424,4.68,4.68,0,0,0-1.678,1.229,5.544,5.544,0,0,0-1.083,1.968,8.506,8.506,0,0,0-.379,2.642,8.613,8.613,0,0,0,.379,2.707,5.271,5.271,0,0,0,1.039,1.881A4,4,0,0,0,221.2,68.9a5.257,5.257,0,0,0,1.916.348q0.433,0,.921-0.022a6.642,6.642,0,0,0,.855-0.087v2.131Zm4.7-12.47a2.852,2.852,0,0,1,1.029.924,4.658,4.658,0,0,1,.649,1.446,7.7,7.7,0,0,1-.054,3.925,4.345,4.345,0,0,1-.768,1.479,3.08,3.08,0,0,1-1.126.87,3.362,3.362,0,0,1-1.375.283q-0.346,0-.7-0.011a3.556,3.556,0,0,1-.574-0.054V58.638a2.729,2.729,0,0,1,.78-0.13q0.476-.021.779-0.022A2.914,2.914,0,0,1,229.59,58.8Zm-7.524,8.622a2.972,2.972,0,0,1-1.061-.892,4.278,4.278,0,0,1-.682-1.424,6.863,6.863,0,0,1-.238-1.881,7.108,7.108,0,0,1,.271-2.066,4.415,4.415,0,0,1,.747-1.489,3.04,3.04,0,0,1,1.115-.892,3.25,3.25,0,0,1,1.375-.294q0.3,0,.682.022a6.114,6.114,0,0,1,.638.065V67.6a3,3,0,0,1-.357.076,3.965,3.965,0,0,1-.422.043c-0.144.007-.278,0.011-0.4,0.011h-0.292A3.065,3.065,0,0,1,222.066,67.423Zm19.779,6.241h1.472V55.616h-1.472V73.663ZM256.7,70.837h2.014l3.507-5.458,0.563-1.3,0.585,1.3,3.421,5.458h2.1l-4.98-7.893,4.764-7.328H266.68l-3.248,5.153-0.52,1.239-0.541-1.239L259.3,55.616h-2.165l4.612,7.48ZM271.27,55.616h-2.079L274.8,66.879a6.057,6.057,0,0,1-.714,1.837,1.2,1.2,0,0,1-1.018.62,3.868,3.868,0,0,1-.671-0.065,2.619,2.619,0,0,1-.8-0.3l-0.541,1.5a2.858,2.858,0,0,0,.79.359,4.329,4.329,0,0,0,1.137.12,2.73,2.73,0,0,0,1.277-.272,2.861,2.861,0,0,0,.974-0.913,9.226,9.226,0,0,0,.9-1.674q0.444-1.032,1.028-2.577l3.833-9.894h-1.841l-2.9,7.958-0.433,2h-0.108l-0.563-1.935Zm22.691,13.612h-1.97V55.616h-8.1a52.761,52.761,0,0,1-.281,5.86q-0.282,2.468-.639,4.11a16.257,16.257,0,0,1-.715,2.522,6.634,6.634,0,0,1-.53,1.12h-1.537v4.414h1.255l0.325-2.8H292.4l0.325,2.8h1.234V69.227Zm-10.328,0a12.565,12.565,0,0,0,.671-1.783,21.723,21.723,0,0,0,.585-2.533q0.26-1.468.444-3.381t0.249-4.305h4.612v12h-6.561Zm12.017-2.772a6.97,6.97,0,0,0,1.137,2.479,5.212,5.212,0,0,0,1.927,1.6,6.183,6.183,0,0,0,2.739.565,5.533,5.533,0,0,0,4.6-2.033,9.211,9.211,0,0,0,1.613-5.838A13.121,13.121,0,0,0,307.3,60a7.011,7.011,0,0,0-1.137-2.479,5.215,5.215,0,0,0-1.938-1.6,6.309,6.309,0,0,0-2.771-.565,5.477,5.477,0,0,0-4.569,2.033,9.256,9.256,0,0,0-1.6,5.838A13.069,13.069,0,0,0,295.65,66.455Zm2.674-7.958a3.681,3.681,0,0,1,3.129-1.533,3.563,3.563,0,0,1,1.937.511,4.193,4.193,0,0,1,1.343,1.37,6.37,6.37,0,0,1,.779,2,11.143,11.143,0,0,1,.249,2.381,7.9,7.9,0,0,1-1.147,4.729,3.732,3.732,0,0,1-3.161,1.533,3.523,3.523,0,0,1-1.917-.511,4.085,4.085,0,0,1-1.331-1.37,6.51,6.51,0,0,1-.769-1.99,11.1,11.1,0,0,1-.249-2.392A7.958,7.958,0,0,1,298.324,58.5ZM316.2,62.443h-0.974l-4.4-6.828h-2.1l4.525,6.828,1,0.761-1.039.826-4.786,6.806H310.5l4.785-7,0.909-.3v7.306h1.733V63.791h1l4.785,7.045h2.208l-4.828-7.023-1.083-.892,0.866-.7,4.374-6.61h-1.992L318.861,62.4l-0.931.3V55.616H316.2v6.828Zm20.613,8.393h1.8V55.616h-1.8v6.632h-7.275V55.616h-1.8V70.837h1.8v-6.98h7.275v6.98Zm14.745,0h1.8V55.616h-1.061l-7.318,10.372-0.953,1.783h-0.087l0.152-1.718V55.616h-1.8V70.837h1.061l7.318-10.263L351.6,58.79h0.087l-0.13,1.74V70.837Zm13.814,0h2.273L362.1,63.748l-1.1-.87,0.909-.718,5.067-6.545h-2.079L359.8,62.4l-0.974.3V55.616h-1.8V70.837h1.8V63.791h1.017Z"/>
</svg>
