<svg xmlns="http://www.w3.org/2000/svg" width="69" height="69" viewBox="0 0 69 69">
  <metadata><?xpacket begin="﻿" id="W5M0MpCehiHzreSzNTczkc9d"?>
<x:xmpmeta xmlns:x="adobe:ns:meta/" x:xmptk="Adobe XMP Core 5.6-c138 79.159824, 2016/09/14-01:09:01        ">
   <rdf:RDF xmlns:rdf="http://www.w3.org/1999/02/22-rdf-syntax-ns#">
      <rdf:Description rdf:about=""/>
   </rdf:RDF>
</x:xmpmeta>
                                                                                                    
                                                                                                    
                                                                                                    
                                                                                                    
                                                                                                    
                                                                                                    
                                                                                                    
                                                                                                    
                                                                                                    
                                                                                                    
                                                                                                    
                                                                                                    
                                                                                                    
                                                                                                    
                                                                                                    
                                                                                                    
                                                                                                    
                                                                                                    
                                                                                                    
                                                                                                    
                           
<?xpacket end="w"?></metadata>
<defs>
    <style>
      .cls-1 {
        fill-rule: evenodd;
      }
    </style>
  </defs>
  <path id="иконка_тел" data-name="иконка тел" class="cls-1" d="M65.083,5.254A1.15,1.15,0,0,0,63.457,6.88a11.035,11.035,0,0,1,0,15.585,1.15,1.15,0,1,0,1.626,1.626A13.337,13.337,0,0,0,65.083,5.254ZM60.242,7.872A1.15,1.15,0,0,0,58.616,9.5a7.554,7.554,0,0,1,0,10.669,1.15,1.15,0,1,0,1.626,1.626A9.854,9.854,0,0,0,60.242,7.872ZM5.514,6.88A1.15,1.15,0,0,0,3.888,5.254a13.337,13.337,0,0,0,0,18.837,1.15,1.15,0,1,0,1.626-1.626A11.032,11.032,0,0,1,5.514,6.88Zm4.842,0.674a1.148,1.148,0,0,0-1.626,0,9.853,9.853,0,0,0,0,13.921,1.15,1.15,0,0,0,1.626-1.626,7.554,7.554,0,0,1,0-10.669A1.151,1.151,0,0,0,10.356,7.554Zm24.13,51.1a2.3,2.3,0,1,1-2.3,2.3A2.3,2.3,0,0,1,34.486,58.65ZM48.967,0H20A5.072,5.072,0,0,0,14.94,5.066V63.933A5.072,5.072,0,0,0,20,69H48.966a5.072,5.072,0,0,0,5.066-5.066V5.066A5.072,5.072,0,0,0,48.967,0ZM37.935,3.45h1.15a1.15,1.15,0,0,1,0,2.3h-1.15A1.15,1.15,0,0,1,37.935,3.45Zm-8.048,0h4.6a1.15,1.15,0,0,1,0,2.3h-4.6A1.15,1.15,0,0,1,29.887,3.45Zm4.6,62.1a4.6,4.6,0,1,1,4.6-4.6A4.6,4.6,0,0,1,34.486,65.55ZM51.732,52.9H17.239V9.2H51.732V52.9Z"/>
</svg>
