<svg xmlns="http://www.w3.org/2000/svg" width="71" height="68"><path id="иконка_писать_мне" data-name="иконка писать мне" d="M44.518 43.5a1.331 1.331 0 00-.249.448v14.235a4.27 4.27 0 01-4.358 4.177H9.884a4.248 4.248 0 01-4.338-4.177v-38.13a4.368 4.368 0 014.338-4.317H39.9a4.312 4.312 0 012.336.72l4.818-5.3a5.637 5.637 0 00-2.891-.757H5.39a5.337 5.337 0 00-5.376 5.346v46.668A5.579 5.579 0 005.619 68h38.546a5.6 5.6 0 005.635-5.587V37.758l-4.65 5.168a3.428 3.428 0 01-.632.574zM12.7 23.049a2.668 2.668 0 100 5.333h18.753l4.91-5.333H12.7zm15.664 9.3c.027-.094.058-.154.094-.308H12.7a2.74 2.74 0 100 5.48h14.17zm-6.105 8.837H12.7a2.74 2.74 0 100 5.48h9.56a2.778 2.778 0 002.624-1.887 4.687 4.687 0 01.144-.884 2.728 2.728 0 00-2.365-2.684 3.035 3.035 0 00-.408-.027zm29.6-30.549L34.1 30.262l-1.2 1.33 9.61 8.548 1.2-1.328 17.754-19.626 1.436-1.579-9.615-8.549zm-.979 8.879L39.43 32.169a.829.829 0 01-.559.267.821.821 0 01-.586-.205l-.568-.505a.8.8 0 01-.058-1.134l11.448-12.657a.808.808 0 01.562-.265.83.83 0 01.584.2l.564.508a.8.8 0 01.062 1.136zM54.2 13.5l.57.5a.8.8 0 01.065 1.127l-.991 1.1a.815.815 0 01-.133.116.806.806 0 01-1.011-.043l-.568-.5a.8.8 0 01-.267-.555.78.78 0 01.207-.579l1-1.1A.814.814 0 0154.2 13.5zm.883-6.435l-.874.964 9.607 8.55.876-.967 1.489-1.644-9.605-8.548zm14.966-1.521L64.6.7a2.808 2.808 0 00-3.942.211l-3.215 3.551 9.608 8.547 3.212-3.551a2.752 2.752 0 00-.214-3.914zm-3.192 3.9l-5.822-5.176 1.682-1.858 5.82 5.179zM30.31 45.9l11.045-4.488-9.6-8.545-3.31 11.376a1.373 1.373 0 00.409 1.41 1.391 1.391 0 001.456.247zm2.318-10l5.582 4.97-4.34 1.764-2.54-2.259z" fill-rule="evenodd"/></svg>