<svg xmlns="http://www.w3.org/2000/svg" width="61" height="61"><path id="insta" d="M30.5 24.434a6.066 6.066 0 106.065 6.066 6.073 6.073 0 00-6.065-6.066zm0 0a6.066 6.066 0 106.065 6.066 6.073 6.073 0 00-6.065-6.066zm10.1-9.89H20.395a5.858 5.858 0 00-5.85 5.851V40.6a5.858 5.858 0 005.851 5.851H40.6a5.858 5.858 0 005.856-5.851V20.395a5.858 5.858 0 00-5.856-5.851zM30.5 41a10.505 10.505 0 1110.505-10.5A10.517 10.517 0 0130.5 41zm10.842-18.833a2.486 2.486 0 112.486-2.486 2.489 2.489 0 01-2.486 2.486zM30.5 24.434a6.066 6.066 0 106.065 6.066 6.073 6.073 0 00-6.065-6.066zm10.1-9.89H20.395a5.858 5.858 0 00-5.85 5.851V40.6a5.858 5.858 0 005.851 5.851H40.6a5.858 5.858 0 005.856-5.851V20.395a5.858 5.858 0 00-5.856-5.851zM30.5 41a10.505 10.505 0 1110.505-10.5A10.517 10.517 0 0130.5 41zm10.842-18.833a2.486 2.486 0 112.486-2.486 2.489 2.489 0 01-2.486 2.486zM30.5 24.434a6.066 6.066 0 106.065 6.066 6.073 6.073 0 00-6.065-6.066zM0 0v61h61V0H0zm50.894 40.6A10.3 10.3 0 0140.6 50.894H20.395A10.3 10.3 0 0110.106 40.6V20.395a10.3 10.3 0 0110.289-10.289H40.6a10.3 10.3 0 0110.294 10.289V40.6zM40.6 14.544H20.395a5.858 5.858 0 00-5.85 5.851V40.6a5.858 5.858 0 005.851 5.851H40.6a5.858 5.858 0 005.856-5.851V20.395a5.858 5.858 0 00-5.856-5.851zM30.5 41a10.505 10.505 0 1110.505-10.5A10.517 10.517 0 0130.5 41zm10.842-18.833a2.486 2.486 0 112.486-2.486 2.489 2.489 0 01-2.486 2.486zM30.5 24.434a6.066 6.066 0 106.065 6.066 6.073 6.073 0 00-6.065-6.066zm0 0a6.066 6.066 0 106.065 6.066 6.073 6.073 0 00-6.065-6.066zm0 0a6.066 6.066 0 106.065 6.066 6.073 6.073 0 00-6.065-6.066zm10.1-9.89H20.395a5.858 5.858 0 00-5.85 5.851V40.6a5.858 5.858 0 005.851 5.851H40.6a5.858 5.858 0 005.856-5.851V20.395a5.858 5.858 0 00-5.856-5.851zM30.5 41a10.505 10.505 0 1110.505-10.5A10.517 10.517 0 0130.5 41zm10.842-18.833a2.486 2.486 0 112.486-2.486 2.489 2.489 0 01-2.486 2.486zM30.5 24.434a6.066 6.066 0 106.065 6.066 6.073 6.073 0 00-6.065-6.066zm0 0a6.066 6.066 0 106.065 6.066 6.073 6.073 0 00-6.065-6.066zm0 0a6.066 6.066 0 106.065 6.066 6.073 6.073 0 00-6.065-6.066zm10.1-9.89H20.395a5.858 5.858 0 00-5.85 5.851V40.6a5.858 5.858 0 005.851 5.851H40.6a5.858 5.858 0 005.856-5.851V20.395a5.858 5.858 0 00-5.856-5.851zM30.5 41a10.505 10.505 0 1110.505-10.5A10.517 10.517 0 0130.5 41zm10.842-18.833a2.486 2.486 0 112.486-2.486 2.489 2.489 0 01-2.486 2.486zM30.5 24.434a6.066 6.066 0 106.065 6.066 6.073 6.073 0 00-6.065-6.066z" fill="#09c" fill-rule="evenodd"/></svg>