<svg id="лого2" xmlns="http://www.w3.org/2000/svg" width="370" height="74"><defs><style>.cls-1{fill:#fff;fill-rule:evenodd}</style></defs><path id="Наталья_Мясникова" data-name="Наталья Мясникова" class="cls-1" d="M19.692 25.547h3.055V-.33h-3.055v11.275H7.324V-.33H4.269v25.877h3.055V13.68h12.368v11.867zm24.184 0h3.239L37.324-.736h-1.4l-9.753 26.283h3.055l2.564-7.172h9.45zM35.6 7.914l.916-3.992h.037l.914 3.918 2.857 7.874h-7.545zM64.71-.33h-19.1v2.736h8.024v23.141h3.055V2.406h8.021V-.33zm16.2 25.876h3.239L74.355-.736h-1.4L63.2 25.547h3.055l2.564-7.172h9.45zM72.629 7.914l.916-3.992h.037L74.5 7.84l2.857 7.874h-7.548zm28.376 17.633h3.055V-.33H90.44q-.11 4.73-.331 8.262t-.57 6.081a33.2 33.2 0 01-.81 4.214 14.222 14.222 0 01-.976 2.662 4.123 4.123 0 01-1.2 1.516 2.194 2.194 0 01-1.233.407 2.663 2.663 0 01-.773-.111l-.4 2.662a4.656 4.656 0 00.92.277 6.136 6.136 0 001.141.092 3.953 3.953 0 002.393-.813 6.454 6.454 0 001.914-2.588 27.875 27.875 0 001.821-7.631q.607-4.9.975-12.291h7.693v23.138zm9.312-.259a12.41 12.41 0 001.528.3q.828.111 1.656.166t1.565.074q.735.018 1.251.019a14.443 14.443 0 003.957-.518 9.1 9.1 0 003.184-1.59 7.438 7.438 0 002.135-2.7 8.866 8.866 0 00.773-3.844 7.907 7.907 0 00-.81-3.789 6.641 6.641 0 00-2.116-2.384 8.274 8.274 0 00-2.982-1.238 16.736 16.736 0 00-3.441-.351q-.442 0-.994.037l-1.068.074c-.344.025-.662.055-.957.092s-.5.068-.626.092V-.33h-3.055v25.618zm4.528-2.163a10.289 10.289 0 01-1.473-.166V12.424q.184-.036.589-.111a8.78 8.78 0 01.884-.111l.957-.074q.478-.036.81-.037a12.143 12.143 0 012.429.24 5.718 5.718 0 012.08.85 4.5 4.5 0 011.454 1.645 5.456 5.456 0 01.552 2.588 6.055 6.055 0 01-.5 2.532 4.938 4.938 0 01-1.38 1.811 5.9 5.9 0 01-2.043 1.072 8.517 8.517 0 01-2.485.351q-.919.001-1.874-.055zm30.588-23.2a17.413 17.413 0 00-2.779-.444q-1.417-.111-2.669-.111a17.024 17.024 0 00-3.7.388 8.555 8.555 0 00-3.055 1.294 6.325 6.325 0 00-2.061 2.4 8.288 8.288 0 00-.755 3.752 8.351 8.351 0 00.46 2.883 6.882 6.882 0 001.288 2.2 7.08 7.08 0 001.951 1.553 9.379 9.379 0 002.448.906l-2.245 1.59-5.742 9.2h3.607l6.405-10.461 3.791-.813v11.285h3.055V-.071zm-4.122 2.163a9.672 9.672 0 011.067.166V12.5h-2.5a9.414 9.414 0 01-2.411-.3 5.5 5.5 0 01-1.969-.943 4.625 4.625 0 01-1.344-1.645 5.345 5.345 0 01-.5-2.4 5.446 5.446 0 01.516-2.512 4.234 4.234 0 011.38-1.59 5.543 5.543 0 011.969-.832 10.892 10.892 0 012.319-.24c.613-.002 1.105.016 1.473.053zm40.011 23.455h3.055V-.33h-2.392l-7.694 13.16-1.141 2.957h-.073l-1.215-2.887L163.8-.33h-2.283v25.877h2.872V8.135l-.516-3.844h.184l1.326 3.509 7.1 11.718h.92l6.7-11.681 1.4-3.549h.184l-.368 3.881v17.378zm24-25.618a17.413 17.413 0 00-2.779-.444q-1.417-.111-2.669-.111a17.024 17.024 0 00-3.7.388 8.555 8.555 0 00-3.055 1.294 6.325 6.325 0 00-2.061 2.4 8.288 8.288 0 00-.755 3.752 8.351 8.351 0 00.46 2.883 6.882 6.882 0 001.288 2.2 7.066 7.066 0 001.949 1.56 9.379 9.379 0 002.448.906l-2.245 1.59-5.743 9.2h3.608l6.405-10.461 3.791-.813v11.278h3.055V-.071zM201.2 2.091a9.672 9.672 0 011.067.166V12.5h-2.5a9.414 9.414 0 01-2.411-.3 5.5 5.5 0 01-1.969-.943 4.625 4.625 0 01-1.344-1.645 5.345 5.345 0 01-.5-2.4 5.446 5.446 0 01.516-2.514 4.234 4.234 0 011.38-1.59 5.543 5.543 0 011.969-.832 10.892 10.892 0 012.319-.24q.919 0 1.473.055zm26.134 19.98a7.96 7.96 0 01-2.08.85 11.162 11.162 0 01-2.89.333 8.6 8.6 0 01-3.4-.665 7.436 7.436 0 01-2.724-2 9.587 9.587 0 01-1.822-3.327 14.794 14.794 0 01-.663-4.658 15.479 15.479 0 01.7-4.99 9.192 9.192 0 011.859-3.29 6.844 6.844 0 012.632-1.811 8.4 8.4 0 012.982-.555 11.5 11.5 0 015.043.887L227.7.114a11.552 11.552 0 00-2.393-.647 22.056 22.056 0 00-3.607-.24 11.531 11.531 0 00-4.049.739 9.914 9.914 0 00-3.589 2.347 11.757 11.757 0 00-2.577 4.14 17.179 17.179 0 00-.975 6.155 18.273 18.273 0 00.883 6.007 11.66 11.66 0 002.393 4.159 9.5 9.5 0 003.534 2.421 11.777 11.777 0 004.343.795 18.693 18.693 0 003.607-.333 6.6 6.6 0 002.8-1.183zm20.687 3.475h3.055V-.33h-3.056v11.275h-12.368V-.33H232.6v25.877h3.056V13.68h12.364v11.867zm25.067 0h3.055V-.33h-1.8L261.9 17.3l-1.62 3.031h-.15l.258-2.92V-.33h-3.056v25.877h1.8L271.578 8.1l1.582-3.031h.148l-.221 2.957v17.521zm23.484 0h3.865L291.013 13.5l-1.877-1.479 1.546-1.22L299.3-.33h-3.533l-8.656 11.53-1.656.518V-.33H282.4v25.877h3.055V13.57h1.73zm7.1-7.449a11.878 11.878 0 001.933 4.214 8.877 8.877 0 003.276 2.717 10.511 10.511 0 004.656.961 9.4 9.4 0 007.822-3.456q2.742-3.456 2.743-9.925a22.282 22.282 0 00-.626-5.49 11.9 11.9 0 00-1.93-4.218 8.85 8.85 0 00-3.294-2.712 10.726 10.726 0 00-4.712-.961 9.308 9.308 0 00-7.766 3.456q-2.726 3.457-2.724 9.926a22.278 22.278 0 00.625 5.491zm4.546-13.53a6.258 6.258 0 015.319-2.606 6.062 6.062 0 013.295.869 7.141 7.141 0 012.282 2.329 10.8 10.8 0 011.325 3.4 18.959 18.959 0 01.423 4.048q0 5.434-1.95 8.04a6.344 6.344 0 01-5.375 2.606 5.985 5.985 0 01-3.257-.869 6.945 6.945 0 01-2.264-2.329 11.086 11.086 0 01-1.307-3.382 18.879 18.879 0 01-.423-4.066q.003-5.433 1.935-8.039zm35.816-2.126a5.72 5.72 0 00-2.006-1.9 8.105 8.105 0 00-2.706-.924 18.393 18.393 0 00-2.926-.24q-2.136 0-3.939.148t-3.166.37v25.47a10.461 10.461 0 001.62.277q.919.092 1.841.148t1.766.055h1.473a14.176 14.176 0 003.534-.444 9.559 9.559 0 003.073-1.368 7.091 7.091 0 002.172-2.384 6.893 6.893 0 00.828-3.456 6.61 6.61 0 00-.478-2.625 6.037 6.037 0 00-1.252-1.885 5.762 5.762 0 00-1.785-1.22 8.949 8.949 0 00-2.117-.628v-.151a7.015 7.015 0 002.172-.961 5.911 5.911 0 001.509-1.46 6.287 6.287 0 00.884-1.793 6.423 6.423 0 00.294-1.885 5.684 5.684 0 00-.788-3.142zm-8.779 20.72q-.589-.018-1.141-.055a77.712 77.712 0 01-1.031-.074 3.843 3.843 0 01-.736-.111v-9.278h3.2a16.151 16.151 0 012.43.185 6.854 6.854 0 012.19.7 4.257 4.257 0 011.583 1.442 4.387 4.387 0 01.607 2.44 4.248 4.248 0 01-.5 2.107 4.59 4.59 0 01-1.344 1.5 5.646 5.646 0 01-1.951.887 9.337 9.337 0 01-2.282.277c-.286 0-.63-.006-1.022-.019zm-2.905-12.105v-8.8a10.558 10.558 0 011.527-.166q1.012-.055 2.227-.055a10.112 10.112 0 012.025.2 5.368 5.368 0 011.767.684 3.612 3.612 0 011.233 1.281 3.986 3.986 0 01.46 2.015 3.879 3.879 0 01-.35 1.645 4.268 4.268 0 01-.957 1.331 6.7 6.7 0 01-1.38 1 10.039 10.039 0 01-1.657.721q-.588.075-1.472.111t-1.509.037h-1.914zm33.312 14.491h3.24L359.11-.736h-1.4l-9.754 26.283h3.055l2.564-7.172h9.449zm-8.277-17.633l.915-3.993h.037l.916 3.918 2.857 7.874h-7.545z"/><path id="Фигура_2" data-name="Фигура 2" d="M1 42.006v-2.011h368v2.011H1z" fill="#fff200" fill-rule="evenodd"/><path id="Дизайнер_Фотограф_Художник" data-name="Дизайнер | Фотограф | Художник" class="cls-1" d="M14.091 69.227h-1.97V55.616h-8.1a52.648 52.648 0 01-.281 5.86q-.28 2.468-.64 4.109a16.266 16.266 0 01-.715 2.522 6.607 6.607 0 01-.53 1.12H.321v4.414h1.256l.325-2.8h10.63l.325 2.8h1.234v-4.414zm-10.328 0a12.66 12.66 0 00.671-1.783 21.874 21.874 0 00.585-2.533q.26-1.468.444-3.381t.249-4.305h4.612v12H3.763zm22.037 1.61h1.8V55.616h-1.059l-7.318 10.372-.953 1.783h-.087l.152-1.718V55.616h-1.8v15.221H17.6l7.318-10.263.931-1.783h.087L25.8 60.53v10.307zm7.838-7.2q.238 0 .465.011t.497.035a5.043 5.043 0 012.49.75 2.253 2.253 0 01.953 2.011 2.739 2.739 0 01-.314 1.348 2.963 2.963 0 01-.823.946 3.521 3.521 0 01-1.158.565 4.8 4.8 0 01-1.321.185 12.071 12.071 0 01-2.176-.167 6.1 6.1 0 01-1.4-.4l-.455 1.609a8.038 8.038 0 001.526.4 13.879 13.879 0 002.349.163 8.15 8.15 0 002.089-.272 5.277 5.277 0 001.819-.859 4.328 4.328 0 001.765-3.631 3.482 3.482 0 00-.888-2.5 4 4 0 00-2.425-1.152V62.6a3.957 3.957 0 002.144-1.424 3.493 3.493 0 00.715-2.076 3.683 3.683 0 00-.4-1.794 3.141 3.141 0 00-1.061-1.153 4.578 4.578 0 00-1.494-.609 7.844 7.844 0 00-1.7-.185 11.733 11.733 0 00-2.533.25 6.524 6.524 0 00-1.559.489l.476 1.435a5.649 5.649 0 011.321-.4 10.42 10.42 0 011.992-.163 5.582 5.582 0 011.18.12 2.684 2.684 0 01.974.413 2.021 2.021 0 01.66.772 2.673 2.673 0 01.238 1.2 2.119 2.119 0 01-.217.957 2.5 2.5 0 01-.585.761 3.064 3.064 0 01-.866.533 4.566 4.566 0 01-1.061.294 2.221 2.221 0 01-.444.054q-.271.011-.563.033t-.574.022h-.822v1.522h1.191zm18.1 7.2h1.905l-5.759-15.46h-.817l-5.738 15.46h1.8l1.508-4.218h5.558zm-4.864-10.372l.539-2.348h.022l.539 2.3 1.68 4.631h-4.438zm18.055 10.372h1.8V55.616h-1.064l-7.318 10.372-.953 1.783h-.086l.152-1.718V55.616h-1.8v15.221h1.061l7.318-10.263.931-1.783h.087l-.13 1.74v10.306zM57.7 52.354a2.466 2.466 0 001.158 1.9 4.8 4.8 0 002.523.6 3.851 3.851 0 002.457-.685 3.079 3.079 0 001.094-1.859l-1.559-.37a1.873 1.873 0 01-.617 1.218 2.045 2.045 0 01-1.375.435 2.088 2.088 0 01-1.386-.435 1.789 1.789 0 01-.606-1.239zm21.779 18.483h1.8V55.616h-1.8v6.632H72.2v-6.632h-1.8v15.221h1.8v-6.98h7.275v6.98zm5.478 0h8.358v-1.61h-6.56v-5.414h5.911V62.2h-5.912v-4.975h6.452v-1.609h-8.249v15.221zm11.605 0h1.8v-5.785a3.612 3.612 0 00.368.044q.26.022.531.033t.52.011h.358a9.135 9.135 0 002.187-.261 5.325 5.325 0 001.883-.859 4.389 4.389 0 001.321-1.555 5.04 5.04 0 00.5-2.348 4.59 4.59 0 00-.53-2.327 4.034 4.034 0 00-1.375-1.435 5.482 5.482 0 00-1.873-.718 10.828 10.828 0 00-2.025-.2q-.931 0-1.883.065a10.882 10.882 0 00-1.775.261v15.074zm5.088-13.677a3.733 3.733 0 011.245.511 2.694 2.694 0 01.888.957 3.007 3.007 0 01.336 1.489 3.639 3.639 0 01-.358 1.718 2.7 2.7 0 01-.941 1.044 3.777 3.777 0 01-1.31.511 7.609 7.609 0 01-1.462.141H99.7q-.239 0-.5-.011l-.5-.022a1.132 1.132 0 01-.346-.054v-6.306a3.673 3.673 0 01.823-.109q.52-.021 1.083-.022a6.459 6.459 0 011.39.152zm11.93 16.5h1.473V55.616h-1.473v18.047zm22.431-2.392h1.8V69.1a2.711 2.711 0 00.7.12c.311.022.545.033.7.033a5.3 5.3 0 002.035-.391 4.6 4.6 0 001.667-1.174 5.728 5.728 0 001.137-1.957 8 8 0 00.422-2.718 8.6 8.6 0 00-.368-2.642 5.266 5.266 0 00-1.028-1.892 4.315 4.315 0 00-1.548-1.131 4.843 4.843 0 00-1.927-.381c-.231 0-.524.008-.877.022a4.078 4.078 0 00-.92.13v-1.938h-1.8v1.87a5.471 5.471 0 00-.66-.065q-.422-.021-.7-.022a5.372 5.372 0 00-2.165.424 4.7 4.7 0 00-1.678 1.229 5.558 5.558 0 00-1.082 1.968 8.506 8.506 0 00-.379 2.642 8.613 8.613 0 00.379 2.707 5.256 5.256 0 001.039 1.881 4 4 0 001.562 1.085 5.254 5.254 0 001.916.348c.289 0 .595-.007.92-.022a6.6 6.6 0 00.855-.087v2.131zm4.7-12.47a2.841 2.841 0 011.028.924 4.659 4.659 0 01.65 1.446 7.729 7.729 0 01-.054 3.925 4.329 4.329 0 01-.769 1.479 3.072 3.072 0 01-1.126.87 3.358 3.358 0 01-1.375.283q-.346 0-.7-.011a3.556 3.556 0 01-.574-.054v-9.022a2.728 2.728 0 01.779-.13q.477-.021.78-.022a2.914 2.914 0 011.36.314zm-7.524 8.622a2.972 2.972 0 01-1.061-.892 4.278 4.278 0 01-.682-1.424 6.863 6.863 0 01-.238-1.881 7.145 7.145 0 01.27-2.066 4.452 4.452 0 01.747-1.489 3.056 3.056 0 011.115-.892 3.253 3.253 0 011.375-.294c.2 0 .43.008.682.022a6.107 6.107 0 01.639.065V67.6a3 3 0 01-.357.076 3.965 3.965 0 01-.422.043 8.37 8.37 0 01-.4.011h-.292a3.059 3.059 0 01-1.377-.307zm13.738-.968a6.97 6.97 0 001.137 2.479 5.212 5.212 0 001.927 1.6 6.183 6.183 0 002.739.565 5.531 5.531 0 004.6-2.033 9.211 9.211 0 001.613-5.838 13.121 13.121 0 00-.368-3.225 7.011 7.011 0 00-1.137-2.479 5.207 5.207 0 00-1.938-1.6 6.306 6.306 0 00-2.771-.565 5.477 5.477 0 00-4.569 2.033 9.256 9.256 0 00-1.6 5.838 13.069 13.069 0 00.366 3.228zM149.6 58.5a3.681 3.681 0 013.129-1.533 3.569 3.569 0 011.938.511 4.2 4.2 0 011.342 1.37 6.37 6.37 0 01.779 2 11.143 11.143 0 01.249 2.381 7.9 7.9 0 01-1.147 4.729 3.731 3.731 0 01-3.161 1.533 3.526 3.526 0 01-1.917-.511 4.085 4.085 0 01-1.331-1.37 6.51 6.51 0 01-.769-1.99 11.1 11.1 0 01-.249-2.392A7.958 7.958 0 01149.6 58.5zm21.143-2.881H159.5v1.609h4.72v13.609h1.8V57.225h4.72v-1.609zm.931 10.839a6.97 6.97 0 001.137 2.479 5.22 5.22 0 001.927 1.6 6.183 6.183 0 002.739.565 5.531 5.531 0 004.6-2.033 9.211 9.211 0 001.613-5.838 13.121 13.121 0 00-.369-3.231 7.011 7.011 0 00-1.137-2.479 5.2 5.2 0 00-1.938-1.6 6.306 6.306 0 00-2.771-.565 5.477 5.477 0 00-4.569 2.033 9.256 9.256 0 00-1.6 5.838 13.117 13.117 0 00.366 3.228zm2.674-7.958a3.682 3.682 0 013.129-1.533 3.569 3.569 0 011.938.511 4.2 4.2 0 011.342 1.37 6.371 6.371 0 01.78 2 11.208 11.208 0 01.249 2.381 7.9 7.9 0 01-1.148 4.729 3.731 3.731 0 01-3.161 1.533 3.52 3.52 0 01-1.916-.511 4.078 4.078 0 01-1.332-1.37 6.536 6.536 0 01-.769-1.99 11.1 11.1 0 01-.249-2.392 7.958 7.958 0 011.135-4.728zm20.515-2.881h-8.119v15.218h1.8V57.225h6.322v-1.609zm1.45 15.221h1.8v-5.788a3.576 3.576 0 00.368.044 12.56 12.56 0 001.05.044h.357a9.135 9.135 0 002.187-.261 5.338 5.338 0 001.884-.859 4.4 4.4 0 001.32-1.555 5.04 5.04 0 00.5-2.348 4.59 4.59 0 00-.53-2.327 4.034 4.034 0 00-1.375-1.435 5.482 5.482 0 00-1.874-.718 10.825 10.825 0 00-2.024-.2q-.932 0-1.884.065a10.9 10.9 0 00-1.776.261v15.074zm5.087-13.681a3.751 3.751 0 011.245.511 2.692 2.692 0 01.887.957 3.007 3.007 0 01.336 1.489 3.652 3.652 0 01-.357 1.718 2.7 2.7 0 01-.942 1.044 3.777 3.777 0 01-1.31.511 7.609 7.609 0 01-1.462.141h-.346q-.238 0-.5-.011l-.5-.022a1.129 1.129 0 01-.346-.054v-6.305a3.66 3.66 0 01.822-.109c.347-.014.707-.022 1.083-.022a6.468 6.468 0 011.39.152zm14.4 13.677h1.9l-5.759-15.46h-.823l-5.737 15.46h1.8l1.508-4.218h5.558zm-4.869-10.372l.539-2.348h.021l.539 2.3 1.68 4.631h-4.44zm13.963 10.807h1.8V69.1a2.72 2.72 0 00.7.12q.465.033.7.033a5.308 5.308 0 002.036-.391 4.611 4.611 0 001.667-1.174 5.743 5.743 0 001.136-1.957 8 8 0 00.423-2.718 8.628 8.628 0 00-.368-2.642 5.283 5.283 0 00-1.029-1.892 4.3 4.3 0 00-1.548-1.131 4.843 4.843 0 00-1.927-.381q-.346 0-.877.022a4.087 4.087 0 00-.92.13v-1.938h-1.8v1.87a5.491 5.491 0 00-.661-.065 14.776 14.776 0 00-.7-.022 5.368 5.368 0 00-2.165.424 4.68 4.68 0 00-1.678 1.229 5.544 5.544 0 00-1.083 1.968 8.506 8.506 0 00-.379 2.642 8.613 8.613 0 00.379 2.707 5.271 5.271 0 001.039 1.881A4 4 0 00221.2 68.9a5.257 5.257 0 001.916.348q.433 0 .921-.022a6.642 6.642 0 00.855-.087v2.131zm4.7-12.47a2.852 2.852 0 011.029.924 4.658 4.658 0 01.649 1.446 7.7 7.7 0 01-.054 3.925 4.345 4.345 0 01-.768 1.479 3.08 3.08 0 01-1.126.87 3.362 3.362 0 01-1.375.283q-.346 0-.7-.011a3.556 3.556 0 01-.574-.054v-9.025a2.729 2.729 0 01.78-.13q.476-.021.779-.022a2.914 2.914 0 011.356.314zm-7.524 8.622a2.972 2.972 0 01-1.061-.892 4.278 4.278 0 01-.682-1.424 6.863 6.863 0 01-.238-1.881 7.108 7.108 0 01.271-2.066 4.415 4.415 0 01.747-1.489 3.04 3.04 0 011.115-.892 3.25 3.25 0 011.375-.294q.3 0 .682.022a6.114 6.114 0 01.638.065V67.6a3 3 0 01-.357.076 3.965 3.965 0 01-.422.043 8.336 8.336 0 01-.4.011h-.292a3.065 3.065 0 01-1.38-.307zm19.779 6.241h1.472V55.616h-1.472v18.047zm14.851-2.827h2.014l3.507-5.458.563-1.3.585 1.3 3.421 5.458h2.1l-4.98-7.893 4.764-7.328h-1.994l-3.248 5.153-.52 1.239-.541-1.239-3.071-5.153h-2.165l4.612 7.48zm14.57-15.221h-2.079l5.609 11.263a6.057 6.057 0 01-.714 1.837 1.2 1.2 0 01-1.018.62 3.868 3.868 0 01-.671-.065 2.619 2.619 0 01-.8-.3l-.541 1.5a2.858 2.858 0 00.79.359 4.329 4.329 0 001.137.12 2.73 2.73 0 001.277-.272 2.861 2.861 0 00.974-.913 9.226 9.226 0 00.9-1.674q.444-1.032 1.028-2.577l3.833-9.894h-1.841l-2.9 7.958-.433 2h-.108l-.563-1.935zm22.691 13.612h-1.97V55.616h-8.1a52.761 52.761 0 01-.281 5.86q-.282 2.468-.639 4.11a16.257 16.257 0 01-.715 2.522 6.634 6.634 0 01-.53 1.12h-1.537v4.414h1.255l.325-2.8H292.4l.325 2.8h1.234v-4.415zm-10.328 0a12.565 12.565 0 00.671-1.783 21.723 21.723 0 00.585-2.533q.26-1.468.444-3.381t.249-4.305h4.612v12h-6.561zm12.017-2.772a6.97 6.97 0 001.137 2.479 5.212 5.212 0 001.927 1.6 6.183 6.183 0 002.739.565 5.533 5.533 0 004.6-2.033 9.211 9.211 0 001.613-5.838A13.121 13.121 0 00307.3 60a7.011 7.011 0 00-1.137-2.479 5.215 5.215 0 00-1.938-1.6 6.309 6.309 0 00-2.771-.565 5.477 5.477 0 00-4.569 2.033 9.256 9.256 0 00-1.6 5.838 13.069 13.069 0 00.365 3.228zm2.674-7.958a3.681 3.681 0 013.129-1.533 3.563 3.563 0 011.937.511 4.193 4.193 0 011.343 1.37 6.37 6.37 0 01.779 2 11.143 11.143 0 01.249 2.381 7.9 7.9 0 01-1.147 4.729 3.732 3.732 0 01-3.161 1.533 3.523 3.523 0 01-1.917-.511 4.085 4.085 0 01-1.331-1.37 6.51 6.51 0 01-.769-1.99 11.1 11.1 0 01-.249-2.392 7.958 7.958 0 011.137-4.726zm17.876 3.945h-.974l-4.4-6.828h-2.1l4.525 6.828 1 .761-1.039.826-4.786 6.806h2.074l4.785-7 .909-.3v7.306h1.733v-7.051h1l4.785 7.045h2.208l-4.828-7.023-1.083-.892.866-.7 4.374-6.61h-1.992l-4.396 6.789-.931.3v-7.084h-1.73v6.828zm20.613 8.393h1.8v-15.22h-1.8v6.632h-7.275v-6.632h-1.8v15.221h1.8v-6.98h7.275v6.98zm14.745 0h1.8v-15.22h-1.061l-7.318 10.372-.953 1.783h-.087l.152-1.718V55.616h-1.8v15.221h1.061l7.318-10.263.93-1.784h.087l-.13 1.74v10.307zm13.814 0h2.273l-5.545-7.088-1.1-.87.909-.718 5.067-6.545h-2.079L359.8 62.4l-.974.3v-7.084h-1.8v15.221h1.8v-7.046h1.017z"/></svg>