<svg xmlns="http://www.w3.org/2000/svg" width="69" height="69"><path id="иконка_тел" data-name="иконка тел" d="M65.083 5.254a1.15 1.15 0 00-1.626 1.626 11.035 11.035 0 010 15.585 1.15 1.15 0 101.626 1.626 13.337 13.337 0 000-18.837zm-4.841 2.618A1.15 1.15 0 0058.616 9.5a7.554 7.554 0 010 10.669 1.15 1.15 0 101.626 1.626 9.854 9.854 0 000-13.923zM5.514 6.88a1.15 1.15 0 00-1.626-1.626 13.337 13.337 0 000 18.837 1.15 1.15 0 101.626-1.626 11.032 11.032 0 010-15.585zm4.842.674a1.148 1.148 0 00-1.626 0 9.853 9.853 0 000 13.921 1.15 1.15 0 001.626-1.626 7.554 7.554 0 010-10.669 1.151 1.151 0 000-1.626zm24.13 51.1a2.3 2.3 0 11-2.3 2.3 2.3 2.3 0 012.3-2.304zM48.967 0H20a5.072 5.072 0 00-5.06 5.066v58.867A5.072 5.072 0 0020 69h28.966a5.072 5.072 0 005.066-5.066V5.066A5.072 5.072 0 0048.967 0zM37.935 3.45h1.15a1.15 1.15 0 010 2.3h-1.15a1.15 1.15 0 010-2.3zm-8.048 0h4.6a1.15 1.15 0 010 2.3h-4.6a1.15 1.15 0 010-2.3zm4.6 62.1a4.6 4.6 0 114.6-4.6 4.6 4.6 0 01-4.601 4.6zM51.732 52.9H17.239V9.2h34.493v43.7z" fill-rule="evenodd"/></svg>